{"title":"The Romantics 2010 DVDRiP XViD AC3-NiTRO","uid":6145643,"size":1492283680,"categoryP":"video","categoryS":"movies","magnet":"?xt=urn:btih:f754c7bf28adb72654a9c54fda9ed93143ca353e&amp;dn=The+Romantics+2010+DVDRiP+XViD+AC3-NiTRO&amp;tr=udp%3A%2F%2Ftracker.openbittorrent.com%3A80&amp;tr=udp%3A%2F%2Fopen.demonii.com%3A1337&amp;tr=udp%3A%2F%2Ftracker.coppersurfer.tk%3A6969&amp;tr=udp%3A%2F%2Fexodus.desync.com%3A6969","seeders":0,"leechers":1,"uploader":"TheCloon","files":-1,"time":1296663706,"description":"The.Romantics.2010.DVDRiP.XViD.AC3.NiTR0\n\nSource: R1 NTSC DVD9\nRuntime: 97 min\nIMDB: http://www.imdb.com/title/tt1403988/\nGenre: Comedy | Drama | Romance\n\nComplete name                    : The.Romantics.2010.DVDRiP.XViD.AC3.NiTR0.avi\nFormat                           : AVI\nFormat/Info                      : Audio Video Interleave\nFormat profile                   : OpenDML\nFormat settings                  : rec\nFile size                        : 1.37 GiB\nDuration                         : 1h 36mn\nOverall bit rate                 : 2 027 Kbps\n\n\nFormat                           : MPEG-4 Visual\nFormat profile                   : Advanced Simple@L5\nFormat settings, BVOP            : 2\nFormat settings, QPel            : No\nFormat settings, GMC             : No warppoints\nFormat settings, Matrix          : Default (H.263)\nMuxing mode                      : Packed bitstream\nCodec ID                         : XVID\nDuration                         : 1h 36mn\nBit rate                         : 1 573 Kbps\nWidth                            : 720 pixels\nHeight                           : 384 pixels\nDisplay aspect ratio             : 1.875\nFrame rate                       : 23.976 fps\nScan type                        : Progressive\nStream size                      : 1.06 GiB (78%)\n\n\nFormat                           : AC-3\nFormat/Info                      : Audio Coding 3\nMode extension                   : CM (complete main)\nDuration                         : 1h 36mn\nBit rate mode                    : Constant\nBit rate                         : 448 Kbps\nChannel(s)                       : 6 channels\nChannel positions                : Front: L C R, Side: L R, LFE\nSampling rate                    : 48.0 KHz\nBit depth                        : 16 bits\nStream size                      : 310 MiB (22%)\n\n\nSeven close friends reunite for the wedding of two of their friends. Problems arise because the bride and the maid of honor had a long rivalry over the groom.\n\n\n\n &lt;a href=&quot;\nhttp://img833.imageshack.us/img833/4735/31625542.png&quot; rel=&quot;nofollow&quot; target=&quot;_NEW&quot;&gt;\nhttp://img833.imageshack.us/img833/4735/31625542.png&lt;/a&gt; &lt;a href=&quot;\nhttp://img833.imageshack.us/img833/531/63206923.png&quot; rel=&quot;nofollow&quot; target=&quot;_NEW&quot;&gt;\nhttp://img833.imageshack.us/img833/531/63206923.png&lt;/a&gt; &lt;a href=&quot;\nhttp://img833.imageshack.us/img833/6890/57420364.png&quot; rel=&quot;nofollow&quot; target=&quot;_NEW&quot;&gt;\nhttp://img833.imageshack.us/img833/6890/57420364.png&lt;/a&gt; &lt;a href=&quot;\nhttp://img833.imageshack.us/img833/9316/95864224.png&quot; rel=&quot;nofollow&quot; target=&quot;_NEW&quot;&gt;\nhttp://img833.imageshack.us/img833/9316/95864224.png&lt;/a&gt;","torrent":{"xt":"urn:btih:f754c7bf28adb72654a9c54fda9ed93143ca353e","amp;dn":"The+Romantics+2010+DVDRiP+XViD+AC3-NiTRO","amp;tr":["udp%3A%2F%2Ftracker.openbittorrent.com%3A80","udp%3A%2F%2Fopen.demonii.com%3A1337","udp%3A%2F%2Ftracker.coppersurfer.tk%3A6969","udp%3A%2F%2Fexodus.desync.com%3A6969"],"infoHash":"f754c7bf28adb72654a9c54fda9ed93143ca353e","infoHashBuffer":{"type":"Buffer","data":[247,84,199,191,40,173,183,38,84,169,197,79,218,158,217,49,67,202,53,62]},"announce":[],"urlList":[]}}